<?xml version="1.0" standalone="no"?>
<!DOCTYPE svg PUBLIC "-//W3C//DTD SVG 20010904//EN"
 "http://www.w3.org/TR/2001/REC-SVG-20010904/DTD/svg10.dtd">
<svg version="1.0" xmlns="http://www.w3.org/2000/svg"
 width="500.000000pt" height="500.000000pt" viewBox="0 0 500.000000 500.000000"
 preserveAspectRatio="xMidYMid meet">
<metadata>
Created by potrace 1.14, written by Peter Selinger 2001-2017
</metadata>
<g transform="translate(0.000000,500.000000) scale(0.100000,-0.100000)"
fill="#000000" stroke="none">
<path d="M0 2500 l0 -2500 2500 0 2500 0 0 2500 0 2500 -2500 0 -2500 0 0
-2500z m1809 2178 c52 -16 107 -72 126 -128 14 -42 15 -65 6 -152 -6 -57 -20
-148 -31 -203 -12 -55 -26 -120 -31 -145 -5 -25 -23 -82 -39 -128 l-30 -83 23
-8 c12 -5 38 -12 57 -16 32 -6 68 -16 225 -60 157 -43 448 -116 451 -112 6 6
50 164 113 410 65 249 92 311 154 352 62 40 104 42 763 35 l632 -7 55 -27 c85
-41 137 -122 137 -212 0 -104 -44 -175 -138 -221 -55 -27 -63 -28 -239 -31
l-182 -4 18 -31 c10 -18 46 -102 80 -187 84 -208 123 -303 186 -445 98 -222
193 -450 204 -490 16 -58 14 -97 -10 -160 -37 -100 -144 -163 -256 -152 -42 4
-53 3 -53 -9 0 -25 -71 -237 -98 -289 -36 -73 -72 -121 -144 -196 -78 -82
-129 -116 -268 -182 l-108 -52 216 -260 c118 -143 264 -309 324 -369 59 -60
108 -111 108 -113 0 -10 -111 87 -225 197 -153 146 -200 189 -190 170 23 -39
150 -187 252 -291 62 -64 113 -119 113 -123 0 -7 -205 169 -340 291 -47 43
-78 69 -69 58 46 -59 252 -285 273 -298 13 -9 39 -35 57 -59 l34 -43 -49 35
c-27 19 -109 90 -182 158 -73 67 -136 122 -139 122 -12 0 93 -119 207 -236 59
-61 108 -115 108 -119 0 -5 -15 5 -32 22 -18 16 -55 45 -83 64 -27 18 -95 76
-149 129 l-99 95 82 -103 c44 -57 108 -127 141 -156 58 -50 98 -96 85 -96 -8
0 -216 183 -372 328 -109 101 -257 272 -383 442 -41 56 -69 85 -81 84 -11 0
-40 -1 -65 -2 l-46 -2 6 -417 c3 -230 9 -454 12 -498 3 -44 4 -78 0 -74 -10 9
-35 267 -56 589 -12 173 -23 320 -25 325 -5 11 3 -636 9 -815 l5 -115 -13 90
c-8 50 -24 243 -37 430 -21 303 -25 332 -32 270 -8 -63 -6 -199 8 -635 l4
-145 -14 105 c-8 58 -24 245 -35 415 -11 171 -22 319 -23 330 -2 11 -6 -65
-10 -170 -6 -138 -4 -251 8 -410 8 -121 14 -240 14 -265 l-1 -45 -8 40 c-4 22
-16 119 -25 215 -10 96 -19 176 -20 178 -1 1 -10 -1 -20 -4 -13 -6 -16 -15
-11 -43 3 -20 8 -117 10 -216 l5 -180 -14 105 c-8 58 -18 149 -23 203 -5 54
-12 100 -15 104 -4 3 -61 -18 -127 -46 -96 -42 -578 -225 -847 -322 -99 -36
-237 -21 -343 37 -126 69 -220 239 -220 402 0 166 115 1181 226 1985 13 98 24
183 24 187 0 5 -53 -24 -117 -64 -175 -109 -274 -155 -366 -171 -117 -20 -247
90 -247 208 0 71 35 152 188 435 l72 133 -24 42 c-121 209 -36 489 184 606 76
41 192 59 270 43 l55 -11 40 39 c57 54 132 108 174 126 70 31 183 36 260 12z"/>
<path d="M1580 4652 c-25 -10 -63 -30 -85 -44 -44 -29 -125 -104 -125 -115 0
-5 23 -19 50 -32 27 -14 70 -46 96 -72 34 -34 51 -45 66 -41 31 8 48 -23 48
-86 0 -30 5 -83 12 -118 19 -107 -9 -220 -84 -331 -43 -64 -192 -163 -246
-163 -8 0 -42 -17 -76 -39 -80 -50 -165 -93 -177 -89 -6 2 8 29 30 61 l41 58
-26 9 c-14 6 -28 10 -30 10 -20 0 -103 48 -150 86 -30 25 -57 44 -59 42 -20
-21 -188 -339 -217 -411 -45 -111 -41 -176 15 -240 65 -75 163 -87 274 -36 38
17 79 35 92 40 13 5 82 46 153 92 209 132 179 122 232 76 38 -33 45 -37 49
-22 3 12 5 10 6 -7 0 -14 10 -31 20 -37 18 -11 20 -8 27 30 7 41 7 41 15 14 4
-16 5 -35 2 -43 -6 -17 14 -44 33 -44 9 0 14 12 15 33 0 17 4 41 9 52 6 14 9
2 9 -43 l1 -63 47 -20 c27 -11 64 -27 83 -36 19 -8 44 -19 55 -23 11 -4 36
-15 55 -23 144 -62 432 -117 618 -117 81 0 114 3 117 13 3 9 14 179 15 231 0
5 3 7 6 3 4 -3 23 16 44 42 69 88 150 129 277 141 l88 9 -105 -5 c-98 -4 -110
-7 -187 -44 -87 -43 -172 -123 -174 -164 -1 -15 -2 -17 -6 -4 -6 23 27 84 77
140 70 80 195 129 360 141 43 3 42 4 -10 5 -93 3 -277 -37 -325 -70 -61 -42
-112 -101 -141 -163 -22 -48 -33 -63 -33 -46 -1 13 12 51 29 85 35 75 109 147
183 181 75 34 232 70 300 68 36 -1 57 2 57 9 0 17 -204 3 -282 -20 -151 -45
-248 -122 -319 -253 -39 -72 -40 -73 -36 -34 11 98 166 262 308 324 36 16 154
42 178 39 3 0 43 0 89 1 65 1 82 4 82 16 0 8 6 34 14 57 7 24 26 90 41 148 16
58 37 118 48 134 l20 29 96 -6 96 -5 100 49 c164 80 256 76 345 -16 l34 -35
140 0 c163 0 240 11 303 41 83 40 127 145 102 245 -16 63 -85 134 -149 152
-34 9 -204 13 -695 15 -723 2 -685 6 -738 -65 -33 -45 -49 -89 -97 -273 -23
-88 -58 -218 -77 -290 -19 -71 -37 -140 -40 -152 -3 -13 -8 -23 -12 -23 -10 0
-188 46 -311 80 -58 16 -132 36 -165 44 -33 8 -87 22 -120 31 -33 9 -90 24
-127 33 -36 10 -69 20 -72 23 -7 6 2 36 39 134 36 98 86 350 92 471 7 124 -11
168 -82 210 -61 35 -186 43 -255 16z"/>
<path d="M1138 4490 c-218 -37 -382 -271 -338 -483 29 -139 112 -248 236 -308
127 -61 282 -49 403 32 72 48 117 104 151 188 67 162 38 320 -83 448 -58 62
-142 106 -231 122 -66 12 -70 12 -138 1z"/>
<path d="M1580 4323 c0 -4 5 -15 10 -23 8 -13 10 -13 10 2 0 9 -4 20 -10 23
-5 3 -10 3 -10 -2z"/>
<path d="M3574 4035 c-77 -21 -154 -66 -321 -188 l-82 -61 -25 -80 c-43 -139
-49 -129 79 -147 73 -10 138 -27 195 -49 47 -19 93 -33 102 -32 9 2 21 -6 27
-17 6 -11 38 -36 71 -56 62 -37 210 -173 210 -192 0 -6 19 -35 43 -65 98 -123
167 -345 167 -537 l0 -108 33 -6 c82 -13 176 27 223 95 26 38 29 49 29 127 0
68 -5 95 -22 131 -19 39 -99 225 -260 600 -24 58 -71 172 -104 253 -76 191
-99 234 -146 279 -68 66 -123 79 -219 53z"/>
<path d="M3178 3933 c-25 -29 -31 -43 -49 -117 -9 -39 -26 -105 -38 -146 -24
-87 -24 -90 -11 -90 6 0 10 6 10 14 0 8 14 58 31 110 26 83 36 100 67 124 21
15 39 30 42 33 3 3 29 22 59 42 l53 37 -60 0 c-33 0 -67 2 -74 5 -8 3 -21 -2
-30 -12z"/>
<path d="M1139 3613 c-7 -16 -15 -32 -17 -36 -2 -4 19 6 47 23 28 18 51 34 51
36 0 2 -15 4 -33 4 -27 0 -37 -6 -48 -27z"/>
<path d="M3090 3522 c0 -12 44 -21 134 -27 l71 -4 -54 14 c-80 20 -151 29
-151 17z"/>
<path d="M3350 3466 c14 -7 36 -16 50 -20 14 -3 7 3 -15 13 -45 22 -73 27 -35
7z"/>
<path d="M3088 3463 c7 -3 16 -2 19 1 4 3 -2 6 -13 5 -11 0 -14 -3 -6 -6z"/>
<path d="M3056 3391 c-5 -8 49 -19 169 -35 58 -7 23 9 -58 28 -78 18 -103 20
-111 7z"/>
<path d="M2802 3316 c-69 -14 -116 -46 -164 -112 -30 -42 -30 -42 -23 -138 12
-163 45 -107 45 77 0 38 4 66 9 63 5 -3 30 6 55 20 43 24 63 24 31 0 -12 -9
-13 -31 -8 -123 5 -101 8 -113 24 -113 16 0 19 9 20 63 0 34 4 85 8 112 l7 50
7 -64 c4 -35 7 -81 7 -102 0 -30 3 -37 15 -33 11 4 15 21 15 59 0 73 11 146
21 139 5 -3 9 -26 10 -52 0 -26 4 -56 9 -67 9 -22 6 -26 51 90 31 81 29 85
-43 86 l-63 0 45 21 c25 11 59 24 75 28 52 14 -82 10 -153 -4z"/>
<path d="M3040 3320 c0 -5 10 -10 23 -11 12 0 48 -4 80 -8 70 -9 75 3 7 18
-64 14 -110 14 -110 1z"/>
<path d="M1342 3308 c-7 -7 -12 -45 -12 -97 0 -48 -7 -169 -15 -271 -27 -338
-25 -337 25 9 39 264 48 346 39 357 -14 17 -21 18 -37 2z"/>
<path d="M1395 3147 c-3 -73 -15 -235 -26 -362 -10 -126 -18 -234 -18 -240 1
-14 98 655 99 681 0 12 -11 29 -24 37 l-24 16 -7 -132z"/>
<path d="M2980 3245 c0 -8 2 -15 4 -15 2 0 6 7 10 15 3 8 1 15 -4 15 -6 0 -10
-7 -10 -15z"/>
<path d="M3010 3211 c-7 -29 -10 -54 -8 -56 2 -2 24 12 48 31 25 20 52 40 60
44 22 12 7 22 -43 27 l-44 5 -13 -51z"/>
<path d="M3120 3208 c-25 -17 -60 -45 -78 -60 -18 -15 -42 -28 -54 -28 -18 0
-20 4 -15 40 3 22 4 40 2 40 -2 0 -11 -22 -20 -50 -9 -27 -26 -64 -39 -82
l-22 -33 4 -541 4 -541 42 8 c22 5 60 8 84 9 23 0 42 5 42 10 0 7 13 8 36 4
l36 -7 -7 33 c-8 34 -1 35 37 2 24 -20 86 -3 203 57 104 53 228 167 263 241
37 77 54 167 55 279 0 192 -55 334 -182 461 -83 84 -170 138 -266 166 -33 9
-65 18 -70 21 -6 2 -31 -11 -55 -29z"/>
<path d="M1466 3178 c-8 -71 -28 -419 -24 -423 7 -7 61 443 54 454 -14 22 -25
10 -30 -31z"/>
<path d="M2696 3181 c-17 -19 -18 -31 -12 -113 3 -50 8 -94 11 -97 17 -17 25
27 23 123 -3 107 -3 108 -22 87z"/>
<path d="M1530 3113 c0 -38 -7 -149 -15 -248 -19 -234 -18 -241 10 -55 43 280
49 351 34 361 -26 16 -29 9 -29 -58z"/>
<path d="M1596 3078 c-23 -266 -54 -592 -101 -1058 -74 -724 -85 -842 -85
-920 0 -59 3 -70 26 -94 45 -44 82 -37 443 80 179 59 371 125 426 147 55 22
141 55 190 73 50 18 89 36 88 41 0 4 -7 106 -13 225 -9 150 -11 397 -8 792 l5
573 -124 2 c-129 1 -279 19 -393 47 -111 28 -325 106 -405 148 -16 9 -33 16
-37 16 -3 0 -9 -33 -12 -72z"/>
<path d="M2828 2983 c-2 -5 -1 -96 2 -203 l6 -195 2 171 c1 94 5 186 8 203 4
19 2 31 -4 31 -6 0 -12 -3 -14 -7z"/>
<path d="M2762 2763 c2 -202 4 -196 16 55 5 111 4 142 -5 142 -10 0 -13 -45
-11 -197z"/>
<path d="M2691 2818 c2 -107 3 -122 9 -78 12 83 12 210 0 210 -6 0 -9 -50 -9
-132z"/>
<path d="M2621 2873 c1 -38 4 -108 8 -158 l8 -90 1 81 c1 45 5 115 8 157 6 67
5 77 -10 77 -13 0 -16 -11 -15 -67z"/>
<path d="M1433 2705 c0 -22 2 -30 4 -17 2 12 2 30 0 40 -3 9 -5 -1 -4 -23z"/>
<path d="M1282 2560 c0 -19 2 -27 5 -17 2 9 2 25 0 35 -3 9 -5 1 -5 -18z"/>
<path d="M3881 2435 c-2 -43 -54 -177 -90 -232 -48 -75 -120 -156 -177 -199
-24 -19 -46 -34 -49 -34 -2 0 -25 -13 -51 -30 -26 -16 -80 -39 -120 -51 -69
-21 -90 -38 -63 -54 5 -4 48 11 95 34 176 84 322 213 391 346 42 82 77 194 70
224 -4 12 -5 11 -6 -4z"/>
<path d="M3951 2434 c0 -11 3 -14 6 -6 3 7 2 16 -1 19 -3 4 -6 -2 -5 -13z"/>
<path d="M3941 2384 c0 -11 3 -14 6 -6 3 7 2 16 -1 19 -3 4 -6 -2 -5 -13z"/>
<path d="M3908 2287 c-34 -89 -93 -181 -172 -264 -86 -93 -158 -137 -319 -198
-55 -20 -57 -22 -40 -38 17 -15 24 -13 108 29 173 88 280 183 364 322 44 73
99 207 90 217 -2 2 -16 -29 -31 -68z"/>
<path d="M3776 2325 c-9 -26 -7 -32 5 -12 6 10 9 21 6 23 -2 3 -7 -2 -11 -11z"/>
<path d="M3670 2258 c-72 -115 -238 -228 -391 -267 -66 -17 -69 -18 -51 -34
17 -15 23 -16 58 -3 167 59 339 188 394 296 28 54 22 59 -10 8z"/>
<path d="M3750 2259 c-17 -39 -81 -122 -128 -163 -87 -77 -202 -137 -321 -166
-41 -11 -43 -13 -27 -28 15 -16 21 -15 78 6 165 60 326 189 387 311 18 34 30
65 28 67 -2 3 -10 -10 -17 -27z"/>
<path d="M3142 1944 c29 -30 55 -25 38 7 -7 11 -21 19 -38 19 l-27 0 27 -26z"/>
<path d="M3040 1950 c-14 -4 -44 -8 -67 -9 -57 -1 -73 -9 -73 -35 0 -22 2 -22
68 -12 37 5 69 11 71 12 2 2 -2 10 -9 19 -10 12 -10 15 3 15 8 0 20 -7 27 -15
13 -16 60 -21 60 -7 0 12 -34 42 -46 41 -5 -1 -20 -5 -34 -9z"/>
<path d="M3195 1890 c10 -11 22 -20 27 -20 5 0 4 9 -2 20 -6 11 -18 20 -27 20
-14 0 -14 -2 2 -20z"/>
<path d="M3112 1893 c-8 -3 -5 -11 12 -24 32 -25 38 -24 24 6 -12 26 -14 27
-36 18z"/>
<path d="M3032 1883 c-18 -7 15 -43 40 -43 17 0 18 1 2 25 -17 26 -20 27 -42
18z"/>
<path d="M2965 1875 c-5 -2 -22 -6 -37 -9 -31 -7 -41 -46 -12 -46 11 0 14 6 9
21 -7 22 2 21 35 -6 8 -7 23 -10 32 -6 16 6 16 7 0 27 -9 12 -21 20 -27 19z"/>
<path d="M3166 1832 c-3 -5 3 -17 14 -27 23 -21 26 -9 6 18 -8 10 -17 14 -20
9z"/>
<path d="M3004 1809 c-8 -13 32 -56 42 -46 8 8 -15 57 -27 57 -4 0 -11 -5 -15
-11z"/>
<path d="M3095 1800 c10 -11 22 -20 27 -20 4 0 3 9 -4 20 -7 11 -19 20 -27 20
-11 0 -10 -5 4 -20z"/>
<path d="M2900 1780 c0 -27 3 -30 33 -30 19 0 36 3 40 6 12 13 -26 54 -49 54
-20 0 -24 -5 -24 -30z"/>
<path d="M3145 1740 c10 -11 20 -20 23 -20 3 0 -3 9 -13 20 -10 11 -20 20 -23
20 -3 0 3 -9 13 -20z"/>
<path d="M3065 1730 c10 -11 20 -18 23 -15 7 6 -18 35 -31 35 -5 0 -2 -9 8
-20z"/>
<path d="M2917 1733 c-4 -3 -7 -17 -7 -30 0 -23 2 -23 53 -17 28 4 53 8 55 9
2 2 -1 13 -8 24 -8 16 -20 21 -49 21 -21 0 -41 -3 -44 -7z"/>
<path d="M3120 1665 c13 -14 26 -25 28 -25 3 0 -5 11 -18 25 -13 14 -26 25
-28 25 -3 0 5 -11 18 -25z"/>
<path d="M3190 1686 c0 -2 8 -10 18 -17 15 -13 16 -12 3 4 -13 16 -21 21 -21
13z"/>
<path d="M2772 1590 c0 -14 2 -19 5 -12 2 6 2 18 0 25 -3 6 -5 1 -5 -13z"/>
<path d="M2642 1340 c-2 -99 1 -131 9 -123 8 8 9 46 2 135 l-10 123 -1 -135z"/>
<path d="M2490 1284 c-234 -98 -875 -340 -937 -354 -53 -13 -120 7 -160 47
-32 33 -32 21 -1 -17 44 -54 136 -66 225 -31 26 10 176 60 333 110 157 50 364
122 460 161 158 62 175 72 178 95 2 14 0 25 -5 25 -4 -1 -46 -17 -93 -36z"/>
<path d="M2450 1194 c-74 -30 -227 -86 -340 -126 -194 -67 -299 -107 -469
-177 -105 -44 -203 -40 -271 12 -9 7 -3 0 12 -14 53 -48 145 -62 228 -34 25 8
108 33 185 56 259 77 796 276 803 298 2 6 0 17 -5 25 -7 12 -32 5 -143 -40z"/>
<path d="M2647 1198 c-13 -10 -16 -19 -10 -35 11 -31 36 -14 31 21 -3 24 -5
26 -21 14z"/>
<path d="M2563 1165 c-17 -7 -242 -93 -500 -191 -438 -166 -473 -177 -538
-178 -82 -1 -144 20 -213 71 l-47 36 35 -37 c56 -59 132 -91 215 -91 74 0 84
3 510 142 186 60 549 197 568 213 5 4 7 17 5 28 -3 19 -5 20 -35 7z"/>
<path d="M2653 1133 c-7 -3 -13 -18 -13 -34 0 -30 6 -34 27 -21 16 10 3 60
-14 55z"/>
<path d="M2490 1069 c-126 -54 -272 -109 -514 -194 -87 -31 -199 -75 -249 -97
-133 -60 -236 -69 -352 -33 -12 4 -10 1 6 -9 38 -22 136 -35 194 -26 179 30
1026 328 1033 365 9 44 -2 43 -118 -6z"/>
<path d="M1190 891 c5 -11 15 -23 21 -27 6 -3 3 5 -6 20 -20 30 -30 35 -15 7z"/>
<path d="M1235 830 c10 -11 20 -20 23 -20 3 0 -3 9 -13 20 -10 11 -20 20 -23
20 -3 0 3 -9 13 -20z"/>
</g>
</svg>
